<mxfile host="app.diagrams.net" agent="Mozilla/5.0 (Windows NT 10.0; Win64; x64) AppleWebKit/537.36 (KHTML, like Gecko) Chrome/133.0.0.0 Safari/537.36" version="26.0.10">
  <diagram name="Page-1" id="g6oQssxa66UrN9sUsNSb">
    <mxGraphModel dx="1400" dy="804" grid="1" gridSize="10" guides="1" tooltips="1" connect="1" arrows="1" fold="1" page="1" pageScale="1" pageWidth="2336" pageHeight="1654" math="0" shadow="0">
      <root>
        <mxCell id="0" />
        <mxCell id="1" parent="0" />
        <mxCell id="lxmqaXxFH2Swc7TGlE6W-2" value="MasterUser" style="swimlane;fontStyle=1;align=center;verticalAlign=top;childLayout=stackLayout;horizontal=1;startSize=26;horizontalStack=0;resizeParent=1;resizeParentMax=0;resizeLast=0;collapsible=1;marginBottom=0;whiteSpace=wrap;html=1;" parent="1" vertex="1">
          <mxGeometry x="790" y="110" width="270" height="230" as="geometry" />
        </mxCell>
        <mxCell id="lxmqaXxFH2Swc7TGlE6W-3" value="-UserID&lt;div&gt;~UserName&lt;/div&gt;&lt;div&gt;+Email&lt;/div&gt;&lt;div&gt;-Password&lt;/div&gt;&lt;div&gt;~Contact&lt;/div&gt;&lt;div&gt;~Address&lt;/div&gt;&lt;div&gt;-Roll&lt;/div&gt;&lt;div&gt;~Status&lt;/div&gt;&lt;div&gt;&lt;span style=&quot;background-color: transparent; color: light-dark(rgb(0, 0, 0), rgb(255, 255, 255));&quot;&gt;+Image&lt;/span&gt;&lt;/div&gt;&lt;div&gt;&lt;span style=&quot;background-color: transparent; color: light-dark(rgb(0, 0, 0), rgb(255, 255, 255));&quot;&gt;&lt;br&gt;&lt;/span&gt;&lt;/div&gt;&lt;div&gt;&lt;br&gt;&lt;/div&gt;" style="text;strokeColor=none;fillColor=none;align=left;verticalAlign=top;spacingLeft=4;spacingRight=4;overflow=hidden;rotatable=0;points=[[0,0.5],[1,0.5]];portConstraint=eastwest;whiteSpace=wrap;html=1;" parent="lxmqaXxFH2Swc7TGlE6W-2" vertex="1">
          <mxGeometry y="26" width="270" height="134" as="geometry" />
        </mxCell>
        <mxCell id="lxmqaXxFH2Swc7TGlE6W-4" value="" style="line;strokeWidth=1;fillColor=none;align=left;verticalAlign=middle;spacingTop=-1;spacingLeft=3;spacingRight=3;rotatable=0;labelPosition=right;points=[];portConstraint=eastwest;strokeColor=inherit;" parent="lxmqaXxFH2Swc7TGlE6W-2" vertex="1">
          <mxGeometry y="160" width="270" height="8" as="geometry" />
        </mxCell>
        <mxCell id="lxmqaXxFH2Swc7TGlE6W-5" value="+Register()" style="text;strokeColor=none;fillColor=none;align=left;verticalAlign=top;spacingLeft=4;spacingRight=4;overflow=hidden;rotatable=0;points=[[0,0.5],[1,0.5]];portConstraint=eastwest;whiteSpace=wrap;html=1;" parent="lxmqaXxFH2Swc7TGlE6W-2" vertex="1">
          <mxGeometry y="168" width="270" height="62" as="geometry" />
        </mxCell>
        <mxCell id="lxmqaXxFH2Swc7TGlE6W-79" style="edgeStyle=orthogonalEdgeStyle;rounded=0;orthogonalLoop=1;jettySize=auto;html=1;entryX=0.25;entryY=0;entryDx=0;entryDy=0;endArrow=none;startFill=0;" parent="1" source="lxmqaXxFH2Swc7TGlE6W-12" target="lxmqaXxFH2Swc7TGlE6W-25" edge="1">
          <mxGeometry relative="1" as="geometry">
            <Array as="points">
              <mxPoint x="1190" y="810" />
              <mxPoint x="830" y="810" />
            </Array>
          </mxGeometry>
        </mxCell>
        <mxCell id="lxmqaXxFH2Swc7TGlE6W-80" style="edgeStyle=orthogonalEdgeStyle;rounded=0;orthogonalLoop=1;jettySize=auto;html=1;exitX=0.75;exitY=0;exitDx=0;exitDy=0;entryX=0.5;entryY=0;entryDx=0;entryDy=0;endArrow=none;startFill=0;" parent="1" source="lxmqaXxFH2Swc7TGlE6W-12" target="lxmqaXxFH2Swc7TGlE6W-49" edge="1">
          <mxGeometry relative="1" as="geometry" />
        </mxCell>
        <mxCell id="lxmqaXxFH2Swc7TGlE6W-12" value="Orders" style="swimlane;fontStyle=1;align=center;verticalAlign=top;childLayout=stackLayout;horizontal=1;startSize=26;horizontalStack=0;resizeParent=1;resizeParentMax=0;resizeLast=0;collapsible=1;marginBottom=0;whiteSpace=wrap;html=1;" parent="1" vertex="1">
          <mxGeometry x="1180" y="460" width="160" height="220" as="geometry" />
        </mxCell>
        <mxCell id="lxmqaXxFH2Swc7TGlE6W-13" value="-OrderID&lt;div&gt;-UserID&lt;/div&gt;&lt;div&gt;-Items&lt;/div&gt;&lt;div&gt;-Quantity&lt;/div&gt;&lt;div&gt;-TotalPrice&lt;/div&gt;&lt;div&gt;-Date&lt;div&gt;-OrderStatus&lt;/div&gt;&lt;/div&gt;" style="text;strokeColor=none;fillColor=none;align=left;verticalAlign=top;spacingLeft=4;spacingRight=4;overflow=hidden;rotatable=0;points=[[0,0.5],[1,0.5]];portConstraint=eastwest;whiteSpace=wrap;html=1;" parent="lxmqaXxFH2Swc7TGlE6W-12" vertex="1">
          <mxGeometry y="26" width="160" height="114" as="geometry" />
        </mxCell>
        <mxCell id="lxmqaXxFH2Swc7TGlE6W-14" value="" style="line;strokeWidth=1;fillColor=none;align=left;verticalAlign=middle;spacingTop=-1;spacingLeft=3;spacingRight=3;rotatable=0;labelPosition=right;points=[];portConstraint=eastwest;strokeColor=inherit;" parent="lxmqaXxFH2Swc7TGlE6W-12" vertex="1">
          <mxGeometry y="140" width="160" height="8" as="geometry" />
        </mxCell>
        <mxCell id="lxmqaXxFH2Swc7TGlE6W-15" value="+DispalyOrder()&lt;div&gt;+UpdateOrderStatus()&lt;/div&gt;&lt;div&gt;+CalculateTotalPrice()&lt;/div&gt;&lt;div&gt;+CancelOrder()&lt;/div&gt;" style="text;strokeColor=none;fillColor=none;align=left;verticalAlign=top;spacingLeft=4;spacingRight=4;overflow=hidden;rotatable=0;points=[[0,0.5],[1,0.5]];portConstraint=eastwest;whiteSpace=wrap;html=1;" parent="lxmqaXxFH2Swc7TGlE6W-12" vertex="1">
          <mxGeometry y="148" width="160" height="72" as="geometry" />
        </mxCell>
        <mxCell id="lxmqaXxFH2Swc7TGlE6W-17" value="Payments" style="swimlane;fontStyle=1;align=center;verticalAlign=top;childLayout=stackLayout;horizontal=1;startSize=26;horizontalStack=0;resizeParent=1;resizeParentMax=0;resizeLast=0;collapsible=1;marginBottom=0;whiteSpace=wrap;html=1;" parent="1" vertex="1">
          <mxGeometry x="1330" y="830" width="220" height="154" as="geometry" />
        </mxCell>
        <mxCell id="lxmqaXxFH2Swc7TGlE6W-18" value="-TransactionID&lt;div&gt;-PaymentStaus&lt;/div&gt;&lt;div&gt;-OrderID&lt;/div&gt;&lt;div&gt;&lt;br&gt;&lt;/div&gt;" style="text;strokeColor=none;fillColor=none;align=left;verticalAlign=top;spacingLeft=4;spacingRight=4;overflow=hidden;rotatable=0;points=[[0,0.5],[1,0.5]];portConstraint=eastwest;whiteSpace=wrap;html=1;" parent="lxmqaXxFH2Swc7TGlE6W-17" vertex="1">
          <mxGeometry y="26" width="220" height="64" as="geometry" />
        </mxCell>
        <mxCell id="lxmqaXxFH2Swc7TGlE6W-19" value="" style="line;strokeWidth=1;fillColor=none;align=left;verticalAlign=middle;spacingTop=-1;spacingLeft=3;spacingRight=3;rotatable=0;labelPosition=right;points=[];portConstraint=eastwest;strokeColor=inherit;" parent="lxmqaXxFH2Swc7TGlE6W-17" vertex="1">
          <mxGeometry y="90" width="220" height="8" as="geometry" />
        </mxCell>
        <mxCell id="lxmqaXxFH2Swc7TGlE6W-20" value="+DisplayPaymentDetails()&lt;div&gt;+ProcessPayment(&lt;span style=&quot;background-color: transparent; color: light-dark(rgb(0, 0, 0), rgb(255, 255, 255));&quot;&gt;PaymentType())&lt;/span&gt;&lt;/div&gt;&lt;div&gt;&lt;br&gt;&lt;/div&gt;" style="text;strokeColor=none;fillColor=none;align=left;verticalAlign=top;spacingLeft=4;spacingRight=4;overflow=hidden;rotatable=0;points=[[0,0.5],[1,0.5]];portConstraint=eastwest;whiteSpace=wrap;html=1;" parent="lxmqaXxFH2Swc7TGlE6W-17" vertex="1">
          <mxGeometry y="98" width="220" height="56" as="geometry" />
        </mxCell>
        <mxCell id="lxmqaXxFH2Swc7TGlE6W-21" value="Payment Gatway" style="swimlane;fontStyle=1;align=center;verticalAlign=top;childLayout=stackLayout;horizontal=1;startSize=26;horizontalStack=0;resizeParent=1;resizeParentMax=0;resizeLast=0;collapsible=1;marginBottom=0;whiteSpace=wrap;html=1;" parent="1" vertex="1">
          <mxGeometry x="1710" y="1100" width="160" height="140" as="geometry" />
        </mxCell>
        <mxCell id="lxmqaXxFH2Swc7TGlE6W-22" value="-GatewayID&lt;div&gt;-OrderID&lt;/div&gt;&lt;div&gt;-Provider&lt;/div&gt;&lt;div&gt;-TransactionStatus&lt;/div&gt;" style="text;strokeColor=none;fillColor=none;align=left;verticalAlign=top;spacingLeft=4;spacingRight=4;overflow=hidden;rotatable=0;points=[[0,0.5],[1,0.5]];portConstraint=eastwest;whiteSpace=wrap;html=1;" parent="lxmqaXxFH2Swc7TGlE6W-21" vertex="1">
          <mxGeometry y="26" width="160" height="64" as="geometry" />
        </mxCell>
        <mxCell id="lxmqaXxFH2Swc7TGlE6W-23" value="" style="line;strokeWidth=1;fillColor=none;align=left;verticalAlign=middle;spacingTop=-1;spacingLeft=3;spacingRight=3;rotatable=0;labelPosition=right;points=[];portConstraint=eastwest;strokeColor=inherit;" parent="lxmqaXxFH2Swc7TGlE6W-21" vertex="1">
          <mxGeometry y="90" width="160" height="8" as="geometry" />
        </mxCell>
        <mxCell id="lxmqaXxFH2Swc7TGlE6W-24" value="+ProcessPayment()&lt;div&gt;+RefundPayment()&lt;/div&gt;" style="text;strokeColor=none;fillColor=none;align=left;verticalAlign=top;spacingLeft=4;spacingRight=4;overflow=hidden;rotatable=0;points=[[0,0.5],[1,0.5]];portConstraint=eastwest;whiteSpace=wrap;html=1;" parent="lxmqaXxFH2Swc7TGlE6W-21" vertex="1">
          <mxGeometry y="98" width="160" height="42" as="geometry" />
        </mxCell>
        <mxCell id="lxmqaXxFH2Swc7TGlE6W-25" value="&amp;nbsp; &amp;nbsp; &amp;nbsp; &lt;span style=&quot;white-space: pre;&quot;&gt;&#x9;&lt;/span&gt;Delivery&lt;span style=&quot;white-space: pre;&quot;&gt;&#x9;&lt;/span&gt;&lt;span style=&quot;white-space: pre;&quot;&gt;&#x9;&lt;/span&gt;&lt;span style=&quot;white-space: pre;&quot;&gt;&#x9;&lt;/span&gt;" style="swimlane;fontStyle=1;align=center;verticalAlign=top;childLayout=stackLayout;horizontal=1;startSize=26;horizontalStack=0;resizeParent=1;resizeParentMax=0;resizeLast=0;collapsible=1;marginBottom=0;whiteSpace=wrap;html=1;" parent="1" vertex="1">
          <mxGeometry x="530" y="810" width="160" height="132" as="geometry" />
        </mxCell>
        <mxCell id="lxmqaXxFH2Swc7TGlE6W-26" value="-DeliveryID&lt;div&gt;-DeliveryStatus&lt;/div&gt;" style="text;strokeColor=none;fillColor=none;align=left;verticalAlign=top;spacingLeft=4;spacingRight=4;overflow=hidden;rotatable=0;points=[[0,0.5],[1,0.5]];portConstraint=eastwest;whiteSpace=wrap;html=1;" parent="lxmqaXxFH2Swc7TGlE6W-25" vertex="1">
          <mxGeometry y="26" width="160" height="54" as="geometry" />
        </mxCell>
        <mxCell id="lxmqaXxFH2Swc7TGlE6W-27" value="" style="line;strokeWidth=1;fillColor=none;align=left;verticalAlign=middle;spacingTop=-1;spacingLeft=3;spacingRight=3;rotatable=0;labelPosition=right;points=[];portConstraint=eastwest;strokeColor=inherit;" parent="lxmqaXxFH2Swc7TGlE6W-25" vertex="1">
          <mxGeometry y="80" width="160" height="8" as="geometry" />
        </mxCell>
        <mxCell id="lxmqaXxFH2Swc7TGlE6W-28" value="+ViewDeliveryHistory()" style="text;strokeColor=none;fillColor=none;align=left;verticalAlign=top;spacingLeft=4;spacingRight=4;overflow=hidden;rotatable=0;points=[[0,0.5],[1,0.5]];portConstraint=eastwest;whiteSpace=wrap;html=1;" parent="lxmqaXxFH2Swc7TGlE6W-25" vertex="1">
          <mxGeometry y="88" width="160" height="44" as="geometry" />
        </mxCell>
        <mxCell id="lxmqaXxFH2Swc7TGlE6W-37" value="Remarks" style="swimlane;fontStyle=1;align=center;verticalAlign=top;childLayout=stackLayout;horizontal=1;startSize=26;horizontalStack=0;resizeParent=1;resizeParentMax=0;resizeLast=0;collapsible=1;marginBottom=0;whiteSpace=wrap;html=1;" parent="1" vertex="1">
          <mxGeometry x="1160" y="1100" width="160" height="150" as="geometry" />
        </mxCell>
        <mxCell id="lxmqaXxFH2Swc7TGlE6W-38" value="-RemarkID&lt;div&gt;-UserID&lt;/div&gt;&lt;div&gt;-UserRemark&lt;/div&gt;&lt;div&gt;-RemarkDate&lt;br&gt;&lt;div&gt;&lt;br&gt;&lt;/div&gt;&lt;/div&gt;" style="text;strokeColor=none;fillColor=none;align=left;verticalAlign=top;spacingLeft=4;spacingRight=4;overflow=hidden;rotatable=0;points=[[0,0.5],[1,0.5]];portConstraint=eastwest;whiteSpace=wrap;html=1;" parent="lxmqaXxFH2Swc7TGlE6W-37" vertex="1">
          <mxGeometry y="26" width="160" height="74" as="geometry" />
        </mxCell>
        <mxCell id="lxmqaXxFH2Swc7TGlE6W-39" value="" style="line;strokeWidth=1;fillColor=none;align=left;verticalAlign=middle;spacingTop=-1;spacingLeft=3;spacingRight=3;rotatable=0;labelPosition=right;points=[];portConstraint=eastwest;strokeColor=inherit;" parent="lxmqaXxFH2Swc7TGlE6W-37" vertex="1">
          <mxGeometry y="100" width="160" height="8" as="geometry" />
        </mxCell>
        <mxCell id="lxmqaXxFH2Swc7TGlE6W-40" value="+AddRemarks()&lt;div&gt;&lt;br&gt;&lt;/div&gt;" style="text;strokeColor=none;fillColor=none;align=left;verticalAlign=top;spacingLeft=4;spacingRight=4;overflow=hidden;rotatable=0;points=[[0,0.5],[1,0.5]];portConstraint=eastwest;whiteSpace=wrap;html=1;" parent="lxmqaXxFH2Swc7TGlE6W-37" vertex="1">
          <mxGeometry y="108" width="160" height="42" as="geometry" />
        </mxCell>
        <mxCell id="lxmqaXxFH2Swc7TGlE6W-41" value="UseFavorites" style="swimlane;fontStyle=1;align=center;verticalAlign=top;childLayout=stackLayout;horizontal=1;startSize=26;horizontalStack=0;resizeParent=1;resizeParentMax=0;resizeLast=0;collapsible=1;marginBottom=0;whiteSpace=wrap;html=1;" parent="1" vertex="1">
          <mxGeometry x="530" y="970" width="160" height="140" as="geometry" />
        </mxCell>
        <mxCell id="lxmqaXxFH2Swc7TGlE6W-42" value="-ItemName&lt;div&gt;-RestaurantName&lt;/div&gt;" style="text;strokeColor=none;fillColor=none;align=left;verticalAlign=top;spacingLeft=4;spacingRight=4;overflow=hidden;rotatable=0;points=[[0,0.5],[1,0.5]];portConstraint=eastwest;whiteSpace=wrap;html=1;" parent="lxmqaXxFH2Swc7TGlE6W-41" vertex="1">
          <mxGeometry y="26" width="160" height="54" as="geometry" />
        </mxCell>
        <mxCell id="lxmqaXxFH2Swc7TGlE6W-43" value="" style="line;strokeWidth=1;fillColor=none;align=left;verticalAlign=middle;spacingTop=-1;spacingLeft=3;spacingRight=3;rotatable=0;labelPosition=right;points=[];portConstraint=eastwest;strokeColor=inherit;" parent="lxmqaXxFH2Swc7TGlE6W-41" vertex="1">
          <mxGeometry y="80" width="160" height="8" as="geometry" />
        </mxCell>
        <mxCell id="lxmqaXxFH2Swc7TGlE6W-44" value="+AddtoFavorites()&lt;div&gt;+RemovefromFavorites()&lt;/div&gt;" style="text;strokeColor=none;fillColor=none;align=left;verticalAlign=top;spacingLeft=4;spacingRight=4;overflow=hidden;rotatable=0;points=[[0,0.5],[1,0.5]];portConstraint=eastwest;whiteSpace=wrap;html=1;" parent="lxmqaXxFH2Swc7TGlE6W-41" vertex="1">
          <mxGeometry y="88" width="160" height="52" as="geometry" />
        </mxCell>
        <mxCell id="lxmqaXxFH2Swc7TGlE6W-45" value="Cart" style="swimlane;fontStyle=1;align=center;verticalAlign=top;childLayout=stackLayout;horizontal=1;startSize=26;horizontalStack=0;resizeParent=1;resizeParentMax=0;resizeLast=0;collapsible=1;marginBottom=0;whiteSpace=wrap;html=1;" parent="1" vertex="1">
          <mxGeometry x="980" y="1250" width="160" height="140" as="geometry" />
        </mxCell>
        <mxCell id="lxmqaXxFH2Swc7TGlE6W-46" value="-UserID&lt;div&gt;-Item&lt;/div&gt;&lt;div&gt;-Quantity&lt;/div&gt;" style="text;strokeColor=none;fillColor=none;align=left;verticalAlign=top;spacingLeft=4;spacingRight=4;overflow=hidden;rotatable=0;points=[[0,0.5],[1,0.5]];portConstraint=eastwest;whiteSpace=wrap;html=1;" parent="lxmqaXxFH2Swc7TGlE6W-45" vertex="1">
          <mxGeometry y="26" width="160" height="54" as="geometry" />
        </mxCell>
        <mxCell id="lxmqaXxFH2Swc7TGlE6W-47" value="" style="line;strokeWidth=1;fillColor=none;align=left;verticalAlign=middle;spacingTop=-1;spacingLeft=3;spacingRight=3;rotatable=0;labelPosition=right;points=[];portConstraint=eastwest;strokeColor=inherit;" parent="lxmqaXxFH2Swc7TGlE6W-45" vertex="1">
          <mxGeometry y="80" width="160" height="8" as="geometry" />
        </mxCell>
        <mxCell id="lxmqaXxFH2Swc7TGlE6W-48" value="+AddItem()&lt;div&gt;+RemoveItem()&lt;/div&gt;&lt;div&gt;+CheckOut()&lt;/div&gt;" style="text;strokeColor=none;fillColor=none;align=left;verticalAlign=top;spacingLeft=4;spacingRight=4;overflow=hidden;rotatable=0;points=[[0,0.5],[1,0.5]];portConstraint=eastwest;whiteSpace=wrap;html=1;" parent="lxmqaXxFH2Swc7TGlE6W-45" vertex="1">
          <mxGeometry y="88" width="160" height="52" as="geometry" />
        </mxCell>
        <mxCell id="lxmqaXxFH2Swc7TGlE6W-49" value="OrderHistory" style="swimlane;fontStyle=1;align=center;verticalAlign=top;childLayout=stackLayout;horizontal=1;startSize=26;horizontalStack=0;resizeParent=1;resizeParentMax=0;resizeLast=0;collapsible=1;marginBottom=0;whiteSpace=wrap;html=1;" parent="1" vertex="1">
          <mxGeometry x="1720" y="820" width="160" height="138" as="geometry" />
        </mxCell>
        <mxCell id="lxmqaXxFH2Swc7TGlE6W-50" value="-OrderID&lt;div&gt;-UserID&lt;/div&gt;&lt;div&gt;&lt;br&gt;&lt;/div&gt;" style="text;strokeColor=none;fillColor=none;align=left;verticalAlign=top;spacingLeft=4;spacingRight=4;overflow=hidden;rotatable=0;points=[[0,0.5],[1,0.5]];portConstraint=eastwest;whiteSpace=wrap;html=1;" parent="lxmqaXxFH2Swc7TGlE6W-49" vertex="1">
          <mxGeometry y="26" width="160" height="54" as="geometry" />
        </mxCell>
        <mxCell id="lxmqaXxFH2Swc7TGlE6W-51" value="" style="line;strokeWidth=1;fillColor=none;align=left;verticalAlign=middle;spacingTop=-1;spacingLeft=3;spacingRight=3;rotatable=0;labelPosition=right;points=[];portConstraint=eastwest;strokeColor=inherit;" parent="lxmqaXxFH2Swc7TGlE6W-49" vertex="1">
          <mxGeometry y="80" width="160" height="8" as="geometry" />
        </mxCell>
        <mxCell id="lxmqaXxFH2Swc7TGlE6W-52" value="+ViewOrderHistory()" style="text;strokeColor=none;fillColor=none;align=left;verticalAlign=top;spacingLeft=4;spacingRight=4;overflow=hidden;rotatable=0;points=[[0,0.5],[1,0.5]];portConstraint=eastwest;whiteSpace=wrap;html=1;" parent="lxmqaXxFH2Swc7TGlE6W-49" vertex="1">
          <mxGeometry y="88" width="160" height="50" as="geometry" />
        </mxCell>
        <mxCell id="lxmqaXxFH2Swc7TGlE6W-53" value="Bank" style="swimlane;fontStyle=1;align=center;verticalAlign=top;childLayout=stackLayout;horizontal=1;startSize=26;horizontalStack=0;resizeParent=1;resizeParentMax=0;resizeLast=0;collapsible=1;marginBottom=0;whiteSpace=wrap;html=1;" parent="1" vertex="1">
          <mxGeometry x="1340" y="1450" width="160" height="124" as="geometry" />
        </mxCell>
        <mxCell id="lxmqaXxFH2Swc7TGlE6W-54" value="+TransactionID&lt;div&gt;+GSTNumber&lt;/div&gt;&lt;div&gt;+FssaiID&lt;/div&gt;&lt;div&gt;&lt;br&gt;&lt;/div&gt;" style="text;strokeColor=none;fillColor=none;align=left;verticalAlign=top;spacingLeft=4;spacingRight=4;overflow=hidden;rotatable=0;points=[[0,0.5],[1,0.5]];portConstraint=eastwest;whiteSpace=wrap;html=1;" parent="lxmqaXxFH2Swc7TGlE6W-53" vertex="1">
          <mxGeometry y="26" width="160" height="64" as="geometry" />
        </mxCell>
        <mxCell id="lxmqaXxFH2Swc7TGlE6W-55" value="" style="line;strokeWidth=1;fillColor=none;align=left;verticalAlign=middle;spacingTop=-1;spacingLeft=3;spacingRight=3;rotatable=0;labelPosition=right;points=[];portConstraint=eastwest;strokeColor=inherit;" parent="lxmqaXxFH2Swc7TGlE6W-53" vertex="1">
          <mxGeometry y="90" width="160" height="8" as="geometry" />
        </mxCell>
        <mxCell id="lxmqaXxFH2Swc7TGlE6W-56" value="+CheckTransactionStatus()" style="text;strokeColor=none;fillColor=none;align=left;verticalAlign=top;spacingLeft=4;spacingRight=4;overflow=hidden;rotatable=0;points=[[0,0.5],[1,0.5]];portConstraint=eastwest;whiteSpace=wrap;html=1;" parent="lxmqaXxFH2Swc7TGlE6W-53" vertex="1">
          <mxGeometry y="98" width="160" height="26" as="geometry" />
        </mxCell>
        <mxCell id="lxmqaXxFH2Swc7TGlE6W-58" value="Notification" style="swimlane;fontStyle=1;align=center;verticalAlign=top;childLayout=stackLayout;horizontal=1;startSize=26;horizontalStack=0;resizeParent=1;resizeParentMax=0;resizeLast=0;collapsible=1;marginBottom=0;whiteSpace=wrap;html=1;" parent="1" vertex="1">
          <mxGeometry x="530" y="140" width="200" height="134" as="geometry" />
        </mxCell>
        <mxCell id="lxmqaXxFH2Swc7TGlE6W-59" value="-NotificationID&lt;div&gt;-UserID&lt;/div&gt;&lt;div&gt;-Message&lt;/div&gt;&lt;div&gt;-TimeStamp&lt;/div&gt;&lt;div&gt;&lt;br&gt;&lt;/div&gt;" style="text;strokeColor=none;fillColor=none;align=left;verticalAlign=top;spacingLeft=4;spacingRight=4;overflow=hidden;rotatable=0;points=[[0,0.5],[1,0.5]];portConstraint=eastwest;whiteSpace=wrap;html=1;" parent="lxmqaXxFH2Swc7TGlE6W-58" vertex="1">
          <mxGeometry y="26" width="200" height="74" as="geometry" />
        </mxCell>
        <mxCell id="lxmqaXxFH2Swc7TGlE6W-60" value="" style="line;strokeWidth=1;fillColor=none;align=left;verticalAlign=middle;spacingTop=-1;spacingLeft=3;spacingRight=3;rotatable=0;labelPosition=right;points=[];portConstraint=eastwest;strokeColor=inherit;" parent="lxmqaXxFH2Swc7TGlE6W-58" vertex="1">
          <mxGeometry y="100" width="200" height="8" as="geometry" />
        </mxCell>
        <mxCell id="lxmqaXxFH2Swc7TGlE6W-61" value="+SendNotification()" style="text;strokeColor=none;fillColor=none;align=left;verticalAlign=top;spacingLeft=4;spacingRight=4;overflow=hidden;rotatable=0;points=[[0,0.5],[1,0.5]];portConstraint=eastwest;whiteSpace=wrap;html=1;" parent="lxmqaXxFH2Swc7TGlE6W-58" vertex="1">
          <mxGeometry y="108" width="200" height="26" as="geometry" />
        </mxCell>
        <mxCell id="lxmqaXxFH2Swc7TGlE6W-66" style="edgeStyle=orthogonalEdgeStyle;rounded=0;orthogonalLoop=1;jettySize=auto;html=1;entryX=0.75;entryY=0;entryDx=0;entryDy=0;endArrow=none;startFill=0;" parent="1" source="lxmqaXxFH2Swc7TGlE6W-5" target="lxmqaXxFH2Swc7TGlE6W-45" edge="1">
          <mxGeometry relative="1" as="geometry" />
        </mxCell>
        <mxCell id="lxmqaXxFH2Swc7TGlE6W-33" value="MasterMenuItems" style="swimlane;fontStyle=1;align=center;verticalAlign=top;childLayout=stackLayout;horizontal=1;startSize=26;horizontalStack=0;resizeParent=1;resizeParentMax=0;resizeLast=0;collapsible=1;marginBottom=0;whiteSpace=wrap;html=1;" parent="1" vertex="1">
          <mxGeometry x="1430" y="1080" width="200" height="248" as="geometry" />
        </mxCell>
        <mxCell id="lxmqaXxFH2Swc7TGlE6W-34" value="-ItemID&lt;div&gt;-RestaurantID&lt;br&gt;&lt;div&gt;+ItemName&lt;/div&gt;&lt;/div&gt;&lt;div&gt;+ItemDescription&lt;/div&gt;&lt;div&gt;+Price&lt;/div&gt;&lt;div&gt;+Image&lt;/div&gt;&lt;div&gt;+ItemType&lt;/div&gt;" style="text;strokeColor=none;fillColor=none;align=left;verticalAlign=top;spacingLeft=4;spacingRight=4;overflow=hidden;rotatable=0;points=[[0,0.5],[1,0.5]];portConstraint=eastwest;whiteSpace=wrap;html=1;" parent="lxmqaXxFH2Swc7TGlE6W-33" vertex="1">
          <mxGeometry y="26" width="200" height="114" as="geometry" />
        </mxCell>
        <mxCell id="lxmqaXxFH2Swc7TGlE6W-35" value="" style="line;strokeWidth=1;fillColor=none;align=left;verticalAlign=middle;spacingTop=-1;spacingLeft=3;spacingRight=3;rotatable=0;labelPosition=right;points=[];portConstraint=eastwest;strokeColor=inherit;" parent="lxmqaXxFH2Swc7TGlE6W-33" vertex="1">
          <mxGeometry y="140" width="200" height="38" as="geometry" />
        </mxCell>
        <mxCell id="lxmqaXxFH2Swc7TGlE6W-36" value="+AddItem()&lt;div&gt;+RemoveItem()&lt;/div&gt;&lt;div&gt;+UpdateItemDetails()&lt;/div&gt;&lt;div&gt;+SpotTime()&lt;/div&gt;" style="text;strokeColor=none;fillColor=none;align=left;verticalAlign=top;spacingLeft=4;spacingRight=4;overflow=hidden;rotatable=0;points=[[0,0.5],[1,0.5]];portConstraint=eastwest;whiteSpace=wrap;html=1;" parent="lxmqaXxFH2Swc7TGlE6W-33" vertex="1">
          <mxGeometry y="178" width="200" height="70" as="geometry" />
        </mxCell>
        <mxCell id="lxmqaXxFH2Swc7TGlE6W-67" style="edgeStyle=orthogonalEdgeStyle;rounded=0;orthogonalLoop=1;jettySize=auto;html=1;endArrow=none;startFill=0;entryX=-0.01;entryY=0.111;entryDx=0;entryDy=0;entryPerimeter=0;" parent="1" target="lxmqaXxFH2Swc7TGlE6W-38" edge="1">
          <mxGeometry relative="1" as="geometry">
            <Array as="points">
              <mxPoint x="1030" y="1134" />
            </Array>
            <mxPoint x="1030" y="340" as="sourcePoint" />
            <mxPoint x="1160" y="1206" as="targetPoint" />
          </mxGeometry>
        </mxCell>
        <mxCell id="lxmqaXxFH2Swc7TGlE6W-70" style="edgeStyle=orthogonalEdgeStyle;rounded=0;orthogonalLoop=1;jettySize=auto;html=1;entryX=1;entryY=0.5;entryDx=0;entryDy=0;endArrow=none;startFill=0;exitX=0.296;exitY=1;exitDx=0;exitDy=0;exitPerimeter=0;" parent="1" source="lxmqaXxFH2Swc7TGlE6W-5" target="lxmqaXxFH2Swc7TGlE6W-26" edge="1">
          <mxGeometry relative="1" as="geometry">
            <mxPoint x="870" y="490" as="sourcePoint" />
            <Array as="points">
              <mxPoint x="870" y="863" />
            </Array>
          </mxGeometry>
        </mxCell>
        <mxCell id="lxmqaXxFH2Swc7TGlE6W-71" value="" style="endArrow=open;html=1;endSize=12;startArrow=diamondThin;startSize=14;startFill=0;edgeStyle=orthogonalEdgeStyle;align=left;verticalAlign=bottom;rounded=0;entryX=0.5;entryY=0;entryDx=0;entryDy=0;exitX=1.004;exitY=0.765;exitDx=0;exitDy=0;exitPerimeter=0;" parent="1" source="lxmqaXxFH2Swc7TGlE6W-13" target="lxmqaXxFH2Swc7TGlE6W-33" edge="1">
          <mxGeometry x="-1" y="3" relative="1" as="geometry">
            <mxPoint x="1280" y="970" as="sourcePoint" />
            <mxPoint x="1340" y="1160" as="targetPoint" />
            <Array as="points">
              <mxPoint x="1620" y="573" />
              <mxPoint x="1620" y="1010" />
              <mxPoint x="1530" y="1010" />
            </Array>
          </mxGeometry>
        </mxCell>
        <mxCell id="lxmqaXxFH2Swc7TGlE6W-72" value="" style="endArrow=open;html=1;endSize=12;startArrow=diamondThin;startSize=14;startFill=1;edgeStyle=orthogonalEdgeStyle;align=left;verticalAlign=bottom;rounded=0;exitX=0.992;exitY=0.212;exitDx=0;exitDy=0;exitPerimeter=0;entryX=0.5;entryY=0;entryDx=0;entryDy=0;" parent="1" source="lxmqaXxFH2Swc7TGlE6W-13" target="lxmqaXxFH2Swc7TGlE6W-17" edge="1">
          <mxGeometry x="-1" y="3" relative="1" as="geometry">
            <mxPoint x="1260" y="880" as="sourcePoint" />
            <mxPoint x="1420" y="880" as="targetPoint" />
            <Array as="points">
              <mxPoint x="1440" y="510" />
            </Array>
          </mxGeometry>
        </mxCell>
        <mxCell id="lxmqaXxFH2Swc7TGlE6W-81" style="edgeStyle=orthogonalEdgeStyle;rounded=0;orthogonalLoop=1;jettySize=auto;html=1;entryX=0.25;entryY=0;entryDx=0;entryDy=0;endArrow=none;startFill=0;exitX=0.388;exitY=0.997;exitDx=0;exitDy=0;exitPerimeter=0;" parent="1" source="lxmqaXxFH2Swc7TGlE6W-15" target="lxmqaXxFH2Swc7TGlE6W-53" edge="1">
          <mxGeometry relative="1" as="geometry">
            <mxPoint x="1270" y="1050" as="sourcePoint" />
            <Array as="points">
              <mxPoint x="1242" y="1050" />
              <mxPoint x="1380" y="1050" />
            </Array>
          </mxGeometry>
        </mxCell>
        <mxCell id="lxmqaXxFH2Swc7TGlE6W-82" style="edgeStyle=orthogonalEdgeStyle;rounded=0;orthogonalLoop=1;jettySize=auto;html=1;exitX=1;exitY=0.5;exitDx=0;exitDy=0;endArrow=none;startFill=0;entryX=0.997;entryY=0.028;entryDx=0;entryDy=0;entryPerimeter=0;" parent="1" edge="1">
          <mxGeometry relative="1" as="geometry">
            <mxPoint x="1550.48" y="980" as="sourcePoint" />
            <mxPoint x="1500" y="1501.792" as="targetPoint" />
            <Array as="points">
              <mxPoint x="1670" y="980" />
              <mxPoint x="1670" y="1502" />
            </Array>
          </mxGeometry>
        </mxCell>
        <mxCell id="lxmqaXxFH2Swc7TGlE6W-84" value="" style="endArrow=open;endSize=12;dashed=1;html=1;rounded=0;entryX=0.371;entryY=0.003;entryDx=0;entryDy=0;exitX=0.999;exitY=0.527;exitDx=0;exitDy=0;exitPerimeter=0;entryPerimeter=0;" parent="1" source="lxmqaXxFH2Swc7TGlE6W-18" target="lxmqaXxFH2Swc7TGlE6W-21" edge="1">
          <mxGeometry width="160" relative="1" as="geometry">
            <mxPoint x="1540" y="890" as="sourcePoint" />
            <mxPoint x="1700" y="890" as="targetPoint" />
            <Array as="points">
              <mxPoint x="1690" y="890" />
              <mxPoint x="1690" y="1010" />
              <mxPoint x="1770" y="1010" />
            </Array>
          </mxGeometry>
        </mxCell>
        <mxCell id="lxmqaXxFH2Swc7TGlE6W-85" value="" style="endArrow=open;html=1;endSize=12;startArrow=diamondThin;startSize=14;startFill=0;edgeStyle=orthogonalEdgeStyle;align=left;verticalAlign=bottom;rounded=0;entryX=0.45;entryY=0.999;entryDx=0;entryDy=0;entryPerimeter=0;exitX=0.667;exitY=1;exitDx=0;exitDy=0;exitPerimeter=0;" parent="1" source="lxmqaXxFH2Swc7TGlE6W-5" target="lxmqaXxFH2Swc7TGlE6W-36" edge="1">
          <mxGeometry x="-1" y="3" relative="1" as="geometry">
            <mxPoint x="970" y="1210" as="sourcePoint" />
            <mxPoint x="1520" y="1330" as="targetPoint" />
            <Array as="points">
              <mxPoint x="970" y="1430" />
              <mxPoint x="1520" y="1430" />
            </Array>
          </mxGeometry>
        </mxCell>
        <mxCell id="lxmqaXxFH2Swc7TGlE6W-86" style="edgeStyle=orthogonalEdgeStyle;rounded=0;orthogonalLoop=1;jettySize=auto;html=1;exitX=1;exitY=0.5;exitDx=0;exitDy=0;endArrow=none;startFill=0;" parent="1" source="lxmqaXxFH2Swc7TGlE6W-46" edge="1">
          <mxGeometry relative="1" as="geometry">
            <mxPoint x="1430" y="1303" as="targetPoint" />
          </mxGeometry>
        </mxCell>
        <mxCell id="lxmqaXxFH2Swc7TGlE6W-89" style="edgeStyle=orthogonalEdgeStyle;rounded=0;orthogonalLoop=1;jettySize=auto;html=1;endArrow=none;startFill=0;exitX=0.481;exitY=1;exitDx=0;exitDy=0;exitPerimeter=0;entryX=0.996;entryY=0.618;entryDx=0;entryDy=0;entryPerimeter=0;" parent="1" source="lxmqaXxFH2Swc7TGlE6W-5" target="lxmqaXxFH2Swc7TGlE6W-42" edge="1">
          <mxGeometry relative="1" as="geometry">
            <mxPoint x="950" y="1430" as="targetPoint" />
            <mxPoint x="960" y="1210" as="sourcePoint" />
            <Array as="points">
              <mxPoint x="920" y="1030" />
              <mxPoint x="839" y="1030" />
            </Array>
          </mxGeometry>
        </mxCell>
        <mxCell id="lxmqaXxFH2Swc7TGlE6W-90" style="edgeStyle=orthogonalEdgeStyle;rounded=0;orthogonalLoop=1;jettySize=auto;html=1;endArrow=none;startFill=0;" parent="1" source="lxmqaXxFH2Swc7TGlE6W-3" target="lxmqaXxFH2Swc7TGlE6W-59" edge="1">
          <mxGeometry relative="1" as="geometry" />
        </mxCell>
        <mxCell id="UHANe3AGLeQpvF_npQi8-1" style="edgeStyle=orthogonalEdgeStyle;rounded=0;orthogonalLoop=1;jettySize=auto;html=1;exitX=1;exitY=0.5;exitDx=0;exitDy=0;endArrow=none;startFill=0;" parent="1" source="lxmqaXxFH2Swc7TGlE6W-3" target="lxmqaXxFH2Swc7TGlE6W-12" edge="1">
          <mxGeometry relative="1" as="geometry" />
        </mxCell>
        <mxCell id="UHANe3AGLeQpvF_npQi8-2" value="Role" style="swimlane;fontStyle=1;align=center;verticalAlign=top;childLayout=stackLayout;horizontal=1;startSize=26;horizontalStack=0;resizeParent=1;resizeParentMax=0;resizeLast=0;collapsible=1;marginBottom=0;whiteSpace=wrap;html=1;" parent="1" vertex="1">
          <mxGeometry x="90" y="530" width="160" height="390" as="geometry">
            <mxRectangle x="170" y="530" width="70" height="30" as="alternateBounds" />
          </mxGeometry>
        </mxCell>
        <mxCell id="UHANe3AGLeQpvF_npQi8-3" value="-UserID&lt;div&gt;-RoleID&lt;br&gt;&lt;div&gt;+UserName&lt;/div&gt;&lt;div&gt;-Email&lt;/div&gt;&lt;div&gt;-Password&lt;/div&gt;&lt;div&gt;~Contact&lt;/div&gt;&lt;div&gt;~Address&lt;/div&gt;&lt;div&gt;+Image&lt;/div&gt;&lt;/div&gt;&lt;div&gt;+Location&lt;/div&gt;" style="text;strokeColor=none;fillColor=none;align=left;verticalAlign=top;spacingLeft=4;spacingRight=4;overflow=hidden;rotatable=0;points=[[0,0.5],[1,0.5]];portConstraint=eastwest;whiteSpace=wrap;html=1;" parent="UHANe3AGLeQpvF_npQi8-2" vertex="1">
          <mxGeometry y="26" width="160" height="146" as="geometry" />
        </mxCell>
        <mxCell id="UHANe3AGLeQpvF_npQi8-4" value="" style="line;strokeWidth=1;fillColor=none;align=left;verticalAlign=middle;spacingTop=-1;spacingLeft=3;spacingRight=3;rotatable=0;labelPosition=right;points=[];portConstraint=eastwest;strokeColor=inherit;" parent="UHANe3AGLeQpvF_npQi8-2" vertex="1">
          <mxGeometry y="172" width="160" height="8" as="geometry" />
        </mxCell>
        <mxCell id="UHANe3AGLeQpvF_npQi8-5" value="&lt;div&gt;+Register()&lt;/div&gt;+Login()&lt;div&gt;+PlaceOrder()&lt;/div&gt;&lt;div&gt;+ForgotPassword()&lt;/div&gt;&lt;div&gt;+DeleteUser()&lt;div&gt;+AddREsturant()&lt;/div&gt;&lt;div&gt;+UpdateDeliveryAgentInfo()&lt;/div&gt;&lt;div&gt;+ViewOrderStatus()&lt;/div&gt;&lt;/div&gt;&lt;div&gt;+&lt;span style=&quot;background-color: transparent; color: light-dark(rgb(0, 0, 0), rgb(255, 255, 255));&quot;&gt;SetModeofPayment()&lt;/span&gt;&lt;/div&gt;&lt;div&gt;&lt;div&gt;+OpenHours()&lt;/div&gt;&lt;div&gt;+CloseHours()&lt;/div&gt;&lt;div&gt;+UpdateTimmings()&lt;/div&gt;&lt;div&gt;+CheckAvaliability()&lt;/div&gt;&lt;/div&gt;" style="text;strokeColor=none;fillColor=none;align=left;verticalAlign=top;spacingLeft=4;spacingRight=4;overflow=hidden;rotatable=0;points=[[0,0.5],[1,0.5]];portConstraint=eastwest;whiteSpace=wrap;html=1;" parent="UHANe3AGLeQpvF_npQi8-2" vertex="1">
          <mxGeometry y="180" width="160" height="210" as="geometry" />
        </mxCell>
        <mxCell id="UHANe3AGLeQpvF_npQi8-18" value="" style="endArrow=open;html=1;endSize=12;startArrow=diamondThin;startSize=14;startFill=0;edgeStyle=orthogonalEdgeStyle;align=left;verticalAlign=bottom;rounded=0;entryX=0.5;entryY=0;entryDx=0;entryDy=0;" parent="1" target="UHANe3AGLeQpvF_npQi8-2" edge="1">
          <mxGeometry x="-1" y="3" relative="1" as="geometry">
            <mxPoint x="790" y="300" as="sourcePoint" />
            <mxPoint x="500" y="420" as="targetPoint" />
            <Array as="points">
              <mxPoint x="790" y="300" />
              <mxPoint x="170" y="300" />
            </Array>
          </mxGeometry>
        </mxCell>
        <mxCell id="shlhVtvOnLVR7JOAmDqj-1" style="edgeStyle=orthogonalEdgeStyle;rounded=0;orthogonalLoop=1;jettySize=auto;html=1;exitX=0;exitY=0.5;exitDx=0;exitDy=0;entryX=1;entryY=0;entryDx=0;entryDy=0;endArrow=none;startFill=0;" edge="1" parent="1" source="lxmqaXxFH2Swc7TGlE6W-15" target="lxmqaXxFH2Swc7TGlE6W-45">
          <mxGeometry relative="1" as="geometry" />
        </mxCell>
        <mxCell id="shlhVtvOnLVR7JOAmDqj-2" style="edgeStyle=orthogonalEdgeStyle;rounded=0;orthogonalLoop=1;jettySize=auto;html=1;exitX=0;exitY=0.5;exitDx=0;exitDy=0;entryX=1;entryY=0.5;entryDx=0;entryDy=0;endArrow=none;startFill=0;" edge="1" parent="1" source="lxmqaXxFH2Swc7TGlE6W-18" target="lxmqaXxFH2Swc7TGlE6W-28">
          <mxGeometry relative="1" as="geometry" />
        </mxCell>
      </root>
    </mxGraphModel>
  </diagram>
</mxfile>
